<svg xmlns="http://www.w3.org/2000/svg" viewBox="0 0 95.005 83.55"><path fill="#21376c" d="M0 70.34v-1.484a8.056 8.056 0 0 1 1.022-1.391 35.353 35.353 0 0 0 7.118-8.969 65.683 65.683 0 0 0 8.528-31.973c.126-5.935.027-11.873.035-17.811a2.833 2.833 0 0 1 3.159-3.142q6.354-.007 12.707 0h1.019V3.123a2.8 2.8 0 1 1 5.567-.032v2.425h13.917c0-.851-.005-1.648 0-2.447a2.794 2.794 0 1 1 5.564-.02c.007.821 0 1.645 0 2.447h14.1c0-.906-.01-1.739 0-2.573a2.784 2.784 0 1 1 5.562-.007c.015.856 0 1.715 0 2.652H79.4c3.956 0 7.915.057 11.871-.027 1.724-.037 3 .458 3.736 2.068v73.868c-.737 1.608-2.014 2.068-3.733 2.066q-35.182-.056-70.362.01c-3.174.007-4.4-1.012-4.233-4.26.119-2.271.022-4.552.022-6.91h-1.1c-3.986 0-7.974-.054-11.958.025A3.463 3.463 0 0 1 0 70.34Zm9.157-3.526h.834q31.865 0 63.732-.025a1.816 1.816 0 0 0 1.249-.559 77.325 77.325 0 0 0 5.018-6.415 58 58 0 0 0 8.494-22.94c.47-2.947.693-5.935 1.037-8.981H22.24c-.663 14.157-4.315 27.3-13.083 38.921ZM89.4 11.203H78.307v2.378a2.8 2.8 0 1 1-5.567.035v-2.425h-14.1c0 .881.01 1.71 0 2.539a2.787 2.787 0 1 1-5.562.015c-.01-.854 0-1.7 0-2.534H39.153c0 .908.012 1.742 0 2.576a2.783 2.783 0 1 1-5.559 0c-.012-.856 0-1.712 0-2.583H22.342v11.03H89.4Zm.005 42.8c-.247.512-.388.8-.525 1.094a53.385 53.385 0 0 1-10.863 16.025 4.329 4.329 0 0 1-3.239 1.282q-25.693-.041-51.388-.017h-1.076v5.517H89.4V54.001Z" data-name="Path 9"/></svg>