<svg xmlns="http://www.w3.org/2000/svg" width="62" height="62" role="img"><defs><linearGradient id="faqIcon_svg__a" x1="0.5" x2="0.5" y2="1" gradientUnits="objectBoundingBox"><stop offset="0" stop-color="#ff7a10"></stop><stop offset="1" stop-color="#ff7529"></stop></linearGradient></defs><g data-name="Frequently Asked Questions-icon"><g data-name="Rectangle 38" fill="#fff" stroke="#cad1dc"><path stroke="none" d="M7 0h55v37H7z"></path><path fill="none" d="M7.5.5h54v36h-54z"></path></g><path data-name="Rectangle 39" transform="translate(7 36)" fill="url(#faqIcon_svg__a)" d="M0 0h55v26H0z"></path><path data-name="Rectangle 40" fill="#21376c" d="M0 6h54v49H0z"></path><g fill="#fff"><path data-name="Path 38" d="M40.998 29.711v1.582a1.842 1.842 0 0 0-.045.227 12.723 12.723 0 0 1-1.543 5.313 13.306 13.306 0 0 1-9.561 6.95c-.515.1-1.04.143-1.561.213H14.85A1.209 1.209 0 0 1 14 42.68c.014-4.024.009-8.049.007-12.073a12.95 12.95 0 0 1 1.578-6.426A13.232 13.232 0 0 1 26.94 17.02a12.52 12.52 0 0 1 6.9 1.563 13.286 13.286 0 0 1 6.95 9.564c.094.519.139 1.044.208 1.564ZM16.11 41.891h11.155a12.979 12.979 0 0 0 1.68-.1 11.105 11.105 0 0 0 8.064-5.043 10.885 10.885 0 0 0 1.771-7.68 11.083 11.083 0 0 0-5.058-8.085 10.939 10.939 0 0 0-7.682-1.764 11.081 11.081 0 0 0-7.347 4.072 11.2 11.2 0 0 0-2.588 7.4c.009 3.62 0 7.24 0 10.86.005.099.005.203.005.34Z"></path><path data-name="Path 42" d="M26.112 32.349a3.359 3.359 0 0 1 1.432-2.805 6.769 6.769 0 0 0 .884-.781 1.306 1.306 0 0 0 .351-1.409 1.211 1.211 0 0 0-1.126-.755 2.815 2.815 0 0 0-1.019.061 2.271 2.271 0 0 0-.73.454 2.012 2.012 0 0 0-.306.4.842.842 0 0 1-1.122.309.95.95 0 0 1-.582-1.059 2.276 2.276 0 0 1 1.122-1.592 4.78 4.78 0 0 1 4.938.158 2.654 2.654 0 0 1 .825 3.385 5.309 5.309 0 0 1-1.318 1.664c-.278.242-.563.478-.825.737a1.675 1.675 0 0 0-.49 1.128c-.014.235-.026.469-.038.7a.529.529 0 0 1-.418.534 3.569 3.569 0 0 1-.915.076.615.615 0 0 1-.592-.558c-.037-.213-.048-.431-.071-.647Z"></path><path data-name="Path 43" d="M25.76 36.549a1.349 1.349 0 0 1 1.331-1.355 1.353 1.353 0 0 1 0 2.706 1.348 1.348 0 0 1-1.331-1.351Z"></path></g></g></svg>