<svg xmlns="http://www.w3.org/2000/svg" width="62" height="62" role="img"><defs><linearGradient id="hoghoghIcon_svg__a" x1="0.5" x2="0.5" y2="1" gradientUnits="objectBoundingBox"><stop offset="0" stop-color="#ff7a10"></stop><stop offset="1" stop-color="#ff7529"></stop></linearGradient></defs><g data-name="Customer rights-icon"><g data-name="Rectangle 44" fill="#fff" stroke="#cad1dc"><path stroke="none" d="M7 0h55v37H7z"></path><path fill="none" d="M7.5.5h54v36h-54z"></path></g><path data-name="Rectangle 46" transform="translate(7 36)" fill="url(#hoghoghIcon_svg__a)" d="M0 0h55v26H0z"></path><path data-name="Rectangle 45" fill="#21376c" d="M0 6h54v49H0z"></path><g fill="#fff"><path data-name="Path 60" d="M12.001 33.173c.046-.183.09-.367.139-.549a4.1 4.1 0 0 1 3.9-3.014 13.283 13.283 0 0 1 2.29.092 3.964 3.964 0 0 1 2.92 2.262c.14-.132.268-.256.4-.376a7.114 7.114 0 0 1 4.929-1.975 21.578 21.578 0 0 1 3.134.138 6.738 6.738 0 0 1 3.814 2l.174.168c.006.006.018.007.035.014.182-.268.347-.554.554-.806a3.951 3.951 0 0 1 3.127-1.518 11.916 11.916 0 0 1 2.347.108 3.978 3.978 0 0 1 3.178 3.318.674.674 0 0 0 .054.135v7.379c-.013.015-.031.029-.037.046a1.852 1.852 0 0 1-2.011 1.466H35.68c-.025.1-.047.174-.064.252a2.091 2.091 0 0 1-2.053 1.68q-6.066.01-12.132 0a2.064 2.064 0 0 1-1.382-.527 2.21 2.21 0 0 1-.727-1.408h-5.513a1.783 1.783 0 0 1-1.735-1.258c-.021-.065-.049-.128-.074-.192l.001-7.435Zm15.491 9.012h5.9c.377 0 .462-.086.462-.461 0-1.652.016-3.3-.006-4.957a5.422 5.422 0 0 0-4.392-5.213 16.373 16.373 0 0 0-2.831-.129 5.491 5.491 0 0 0-5.481 5.484c-.008 1.6 0 3.2 0 4.805 0 .392.081.47.483.47q2.931-.002 5.865-.002Zm-8.164-1.948c0-1.156-.037-2.284.014-3.409a19.464 19.464 0 0 1 .3-2.054 7.573 7.573 0 0 0 .157-1.09 2.192 2.192 0 0 0-1.855-2.207 11.32 11.32 0 0 0-1.689-.056 2.284 2.284 0 0 0-2.44 2.438v6.379Zm21.829 0a1.293 1.293 0 0 0 .018-.143c0-2.166.011-4.332-.006-6.5a2.154 2.154 0 0 0-1.79-2.105 9.4 9.4 0 0 0-2.258-.029 2.323 2.323 0 0 0-1.837 3.124 7.339 7.339 0 0 1 .315 1.5c.061 1.276.052 2.556.07 3.835v.316Z"></path><path data-name="Path 62" d="M27.493 17a5.262 5.262 0 1 1-5.257 5.251A5.27 5.27 0 0 1 27.493 17Zm0 8.709a3.447 3.447 0 1 0-3.445-3.44 3.46 3.46 0 0 0 3.448 3.44Z"></path><path data-name="Path 63" d="M20.164 24.199a3.325 3.325 0 1 1-3.324-3.327 3.336 3.336 0 0 1 3.324 3.327Zm-3.318-1.513a1.511 1.511 0 1 0 1.5 1.526 1.514 1.514 0 0 0-1.502-1.526Z"></path><path data-name="Path 64" d="M38.159 20.872a3.326 3.326 0 1 1-3.328 3.323 3.334 3.334 0 0 1 3.328-3.323Zm.01 1.814a1.511 1.511 0 1 0 1.5 1.531 1.515 1.515 0 0 0-1.502-1.531Z"></path></g></g></svg>