<svg xmlns="http://www.w3.org/2000/svg" viewBox="0 0 99.172 99.169"><g fill="#fff"><path d="M.008 51.521a36.368 36.368 0 0 1 1.836-4.72 9.844 9.844 0 0 1 5.607-4.5 1.321 1.321 0 0 0 1-1.107 17.313 17.313 0 0 1 6.043-9.977 2.538 2.538 0 0 0 .255-.235 35.51 35.51 0 0 1-2.735-4.58 11.02 11.02 0 0 1 6.246-14.344 1.293 1.293 0 0 0 .969-1.38 9.8 9.8 0 0 1 .634-3.361 4.174 4.174 0 0 1 3.871-2.469 56.128 56.128 0 0 1 4.55-.01 1.062 1.062 0 0 0 1.272-.932A4.807 4.807 0 0 1 33.382.115a7.111 7.111 0 0 1 1.442-.108q29.483-.008 58.967 0c3.441 0 5.377 1.951 5.379 5.412v14.815c0 3.408-1.931 5.341-5.331 5.352h-4.24v24h-1.122c-5.937 0-11.878-.013-17.815.025a2.283 2.283 0 0 0-1.4.589c-1.367 1.272-2.665 2.622-3.859 3.811.841 2.186 1.618 4.262 2.462 6.308a1.14 1.14 0 0 0 .879.458c2.093.04 4.19.02 6.356.02v12.792c-2.031 0-4.054.045-6.075-.023-.834-.028-1.124.273-1.39 1.037-.654 1.878-1.458 3.706-2.249 5.672 1.565 1.545 3.258 3.218 4.911 4.848l-9.135 9.105c-1.4-1.407-2.89-2.877-4.337-4.387a.983.983 0 0 0-1.382-.24c-1.683.8-3.418 1.493-5.164 2.149-.513.193-.709.386-.7.937.03 2.161.012 4.325.012 6.486H36.805c0-2.161-.02-4.32.005-6.481.008-.546-.18-.746-.7-.942a82.598 82.598 0 0 1-5.246-2.186.888.888 0 0 0-1.23.2c-1.477 1.53-2.99 3.023-4.445 4.488l-9.073-9.058c1.648-1.613 3.348-3.276 4.886-4.783-.874-2.266-1.658-4.335-2.489-6.381a.949.949 0 0 0-.716-.416c-.9-.05-1.806-.02-2.707-.02h-3.929v-9.581c-.26-.03-.416-.058-.576-.068a10.5 10.5 0 0 1-8.574-4.863A28.157 28.157 0 0 1 0 54.237c.008-.908.008-1.812.008-2.716Zm25.253 2.134c-.24.386-.4.656-.576.922a23.388 23.388 0 0 0-3.143 6.922c-.205.8-.2 1.908-.724 2.309-.538.411-1.605.143-2.442.148-1.307.01-2.617 0-3.924 0v6.4c1.868 0 3.671.033 5.474-.015.761-.02 1.152.123 1.28.984a12.382 12.382 0 0 0 .839 3.068c.917 2.119 1.958 4.182 3.075 6.538-1.36 1.342-2.907 2.867-4.37 4.307 1.487 1.487 2.942 2.945 4.452 4.457l4.5-4.56c.331.2.581.343.822.5a21.9 21.9 0 0 0 8.326 3.473c.924.163 1.2.523 1.154 1.443-.078 1.763-.023 3.531-.023 5.314h6.4c0-1.961.017-3.829-.01-5.7-.007-.581.145-.839.769-.957a15.084 15.084 0 0 0 3.163-.854c2.151-.919 4.247-1.971 6.654-3.105l4.262 4.36 4.488-4.493c-1.485-1.43-3.035-2.92-4.6-4.422.255-.4.426-.671.6-.937a22.982 22.982 0 0 0 3.175-7.114c.554-2.291.561-2.291 2.922-2.291h4.117v-6.4h-1.019c-1.58 0-3.163-.025-4.743.013-.6.015-.826-.17-.941-.779a15.159 15.159 0 0 0-.856-3.165c-.922-2.149-1.978-4.24-3.043-6.483 1.185-1.174 2.512-2.492 3.841-3.8.348-.343.641-.674.175-1.137-1.34-1.335-2.677-2.675-4.1-4.089l-4.605 4.69a8.891 8.891 0 0 0-.864-.538c-2.149-1.009-4.287-2.046-6.466-2.982-.9-.388-2.3-.27-2.75-.9-.493-.694-.165-1.981-.175-3.01-.012-1.112 0-2.224 0-3.328h-6.4c0 1.9-.025 3.739.013 5.572.015.686-.135 1.027-.9 1.157a13.918 13.918 0 0 0-3.158.869c-2.116.914-4.177 1.961-6.421 3.03l-4.3-4.44c-1.543 1.54-3.02 3.018-4.558 4.555Zm31.135-8.6c1.56-1.575 3.23-3.263 4.921-4.973 1.931 1.928 3.8 3.839 5.737 5.692a2.263 2.263 0 0 0 1.417.581c5.647.04 11.294.028 16.941.023.305 0 .611-.043.919-.065V28.886a2.543 2.543 0 0 0-.408-.068q-12.343-.007-24.687-.018c-.548 0-.686.263-.831.714a7.848 7.848 0 0 1-8.462 5.577 7.944 7.944 0 1 1 2.815-15.589 25.052 25.052 0 0 1 2.735 1.1V3.212c-1.883 0-3.691.038-5.494-.018a1.083 1.083 0 0 0-1.265.937 7.9 7.9 0 0 1-9.458 5.2 7.692 7.692 0 0 1-5.68-5.4.881.881 0 0 0-1.029-.726 1.791 1.791 0 0 0-1.868 1.362c-.286.924-.646 1.823-.909 2.752a.823.823 0 0 1-.967.679c-2-.03-4-.013-6-.013-2.136 0-2.91 1.119-2.219 3.2a11.227 11.227 0 0 1 10.881 9.7 10.768 10.768 0 0 1-1.59 7.415 11.218 11.218 0 0 1-9.391 5.321v8.832l.21.128 2.439-2.7q2.671 2.716 5.006 5.1l6.674-2.767v-6.927h12.774v6.937c2.283.946 4.444 1.85 6.788 2.826Zm33.2-22.638h4.037c1.846-.005 2.329-.493 2.329-2.369V5.534a2.148 2.148 0 0 0-.093-1.044c-.286-.451-.709-1.109-1.114-1.139-1.688-.128-3.388-.053-5.189-.053v12.639h-3.21V3.303h-7.964a9.925 9.925 0 0 1 1.61 6.368c-.043 4.936-.013 9.872-.013 14.8v1.039h6.448v-6.243h3.16ZM60.868 3.26v22.275h15.8V14.501c-3.541 2.088-6.964 2.149-9.977-.606-3.353-3.068-3.438-6.744-1.22-10.638-1.558-.002-3.033-.002-4.604-.002Zm-39.8 50.7c-1.573-1.548-3.263-3.21-4.968-4.893.428-.451.826-.866 1.237-1.3a3.333 3.333 0 0 0-.233-.336 7.872 7.872 0 0 0-11.327-.448 7.474 7.474 0 0 0-2.1 8.3 7.226 7.226 0 0 0 6.453 5.327c2.712.248 5.464.05 8.156.05.884-2.134 1.793-4.323 2.782-6.702Zm1.187-23.567a8 8 0 1 0-7.858-7.966 8.1 8.1 0 0 0 7.858 7.964Zm49.7-27.161a4.777 4.777 0 1 0 4.8 4.766 4.757 4.757 0 0 0-4.804-4.768Zm-14.394 23.95a4.769 4.769 0 1 0-4.78 4.791 4.733 4.733 0 0 0 4.776-4.793ZM19.19 44.948c0-3.937.008-7.633-.007-11.329a1.072 1.072 0 0 0-1.575-.754 14.276 14.276 0 0 0-6.025 8.725 11.75 11.75 0 0 1 7.607 3.358Zm19.605-41.68a4.633 4.633 0 0 0 4.618 3.12 4.486 4.486 0 0 0 4.13-3.12Z" data-name="Path 171"/><path d="M51.65 80.629a15.882 15.882 0 1 1 3.776-23.558c5.209 6.256 4.766 16.091-.974 21.3L52.296 76.2a12.758 12.758 0 1 0-19.957-2.31c2.856 4.726 9.972 8.439 17.651 4.15.541.839 1.087 1.696 1.66 2.589Z" data-name="Path 183"/><path d="M43.168 76.723a9.543 9.543 0 1 1 9.561-9.461 9.61 9.61 0 0 1-9.561 9.461Zm-6.338-9.551a6.358 6.358 0 1 0 6.406-6.318 6.422 6.422 0 0 0-6.406 6.322Z" data-name="Path 184"/><path d="M11.104 57.531a4.746 4.746 0 1 1 4.818-4.721 4.772 4.772 0 0 1-4.818 4.721Zm1.62-4.753a1.629 1.629 0 0 0-1.605-1.573 1.583 1.583 0 0 0 .017 3.163 1.634 1.634 0 0 0 1.588-1.591Z" data-name="Path 185"/><path d="M22.426 27.124a4.749 4.749 0 1 1 4.7-4.808 4.729 4.729 0 0 1-4.7 4.808Zm1.533-4.614a1.61 1.61 0 0 0-1.47-1.69 1.56 1.56 0 0 0-1.652 1.388 1.589 1.589 0 0 0 1.4 1.742 1.629 1.629 0 0 0 1.722-1.44Z" data-name="Path 186"/></g></svg>