<svg xmlns="http://www.w3.org/2000/svg" width="62" height="62" role="img"><defs><linearGradient id="isacoCardIcon_svg__a" x1="0.5" x2="0.5" y2="1" gradientUnits="objectBoundingBox"><stop offset="0" stop-color="#ff7a10"></stop><stop offset="1" stop-color="#ff7529"></stop></linearGradient></defs><g data-name="isaco card-icon"><g data-name="Rectangle 41" fill="#fff" stroke="#cad1dc"><path stroke="none" d="M7 0h55v37H7z"></path><path fill="none" d="M7.5.5h54v36h-54z"></path></g><path data-name="Rectangle 42" transform="translate(7 36)" fill="url(#isacoCardIcon_svg__a)" d="M0 0h55v26H0z"></path><path data-name="Rectangle 43" fill="#21376c" d="M0 6h54v49H0z"></path><g data-name="credit-card (1)" fill="#fff" stroke="#fff" stroke-width="0.2"><path data-name="Path 53" d="M43.069 24.686c-.061.521-.133 1.041-.183 1.564q-.422 4.465-.836 8.932c-.21 2.26-.436 4.518-.623 6.78a2.275 2.275 0 0 1-2.621 2.021L27.938 42.76l-12.342-1.4c-.747-.085-1.5-.153-2.241-.269a2.091 2.091 0 0 1-1.759-1.882.481.481 0 0 0-.219-.329 2.225 2.225 0 0 1-1.374-2.148V19.459a2.243 2.243 0 0 1 2.468-2.458h24.893a2.209 2.209 0 0 1 2.312 1.67 3.376 3.376 0 0 1 .081.8c.01.784 0 1.568 0 2.377.46.061.9.108 1.328.176a2.2 2.2 0 0 1 1.933 1.807.344.344 0 0 0 .049.081c.002.257.002.516.002.774Zm-31.968.594v11.3c0 .954.4 1.351 1.353 1.351h24.859c.935 0 1.342-.4 1.342-1.331V25.275Zm28.657-2.381v.431c0 4.413.006 8.827-.01 13.239a2.986 2.986 0 0 1-.24 1.216 2.179 2.179 0 0 1-2.18 1.252q-12.093-.011-24.186 0h-.41a1.024 1.024 0 0 0 .876.972c.476.082.959.125 1.44.179q3.287.371 6.574.739l6.637.75 6.028.682c1.581.179 3.163.366 4.746.533a1.1 1.1 0 0 0 1.269-1.031c.078-.727.14-1.456.208-2.185l.624-6.652.553-5.88c.092-.985.193-1.97.274-2.956a1.046 1.046 0 0 0-.843-1.164c-.436-.062-.876-.083-1.359-.125Zm-1.121-2.01H11.129v3.258h27.508Zm-27.532-1.156h27.518a1.258 1.258 0 0 0-1.36-1.644q-12.383.029-24.768.011h-.323a1.106 1.106 0 0 0-1.065 1.054c-.012.186-.002.369-.002.579Z"></path><path data-name="Path 58" d="M32.076 35.719h-4.2c-.587 0-.755-.159-.756-.733v-4.557c0-.571.178-.74.755-.741h8.377c.562 0 .736.172.737.723v4.59c0 .554-.17.718-.736.719Zm3.8-4.918h-7.643v3.8h7.642Z"></path></g></g></svg>