<svg xmlns="http://www.w3.org/2000/svg" class="d-none d-xl-block" viewBox="0 0 50.948 50.89"><g fill="#ff640f" data-name="services rendered-icon"><path d="M32.766 32.929c0-3.915-.006-7.832.009-11.747a.885.885 0 0 0-.431-.831A11.775 11.775 0 0 1 33.599.289a1.818 1.818 0 0 1 2.8 1.671c.01 2.4.012 4.805-.008 7.207 0 .386.094.611.474.693a.338.338 0 0 1 .108.038 3.963 3.963 0 0 0 4.4 0c.332-.192.508-.327.5-.742-.023-2.346-.012-4.692-.011-7.038 0-1.812 1.375-2.617 2.967-1.74a11.778 11.778 0 0 1 1.082 19.987.884.884 0 0 0-.418.835q.014 11.578 0 23.154a6.363 6.363 0 1 1-12.723.268c-.046-3.9-.009-7.794-.009-11.69Zm0-27.33c-.217.283-.338.424-.44.575a8.124 8.124 0 0 0 2.788 11.629 2.293 2.293 0 0 1 1.3 2.237c-.023 8-.012 16-.012 24.007 0 .207-.006.416.006.624a2.731 2.731 0 0 0 5.452-.333q0-12.145-.011-24.289a2.3 2.3 0 0 1 1.3-2.24 8.116 8.116 0 0 0 2.824-11.581c-.115-.176-.252-.336-.471-.628v5.047a1.89 1.89 0 0 1-1.377 2.04c-1.351.545-2.709 1.067-4.056 1.624a2.309 2.309 0 0 1-1.866 0c-1.343-.56-2.7-1.084-4.054-1.625a1.883 1.883 0 0 1-1.383-2.034c-.005-1.623 0-3.249 0-5.053Z" data-name="Path 6"/><path d="M27.377 47.208a6.522 6.522 0 0 1 .318-.755 1.774 1.774 0 0 1 2-.826 1.8 1.8 0 0 1 1.366 1.737 3.609 3.609 0 0 1-3.44 3.495 71.283 71.283 0 0 1-4.263 0 3.624 3.624 0 0 1-3.449-3.313c-.07-.867-.156-1.733-.2-2.6a.512.512 0 0 0-.384-.527c-.985-.384-1.953-.813-2.94-1.193a.691.691 0 0 0-.579.07c-.669.528-1.3 1.1-1.954 1.647a3.628 3.628 0 0 1-5.038-.192q-1.344-1.308-2.653-2.649a3.618 3.618 0 0 1-.188-5.072 94.53 94.53 0 0 1 1.631-1.893.507.507 0 0 0 .071-.648q-.637-1.421-1.19-2.877a.545.545 0 0 0-.568-.41c-.832-.045-1.662-.13-2.492-.191a3.636 3.636 0 0 1-3.407-3.594q-.025-1.957 0-3.917a3.635 3.635 0 0 1 3.426-3.632c.851-.062 1.7-.12 2.547-.219a.693.693 0 0 0 .461-.354c.428-.966.834-1.942 1.21-2.93a.747.747 0 0 0-.085-.622c-.5-.64-1.051-1.243-1.577-1.863a3.62 3.62 0 0 1 .173-5.114q1.314-1.337 2.653-2.649a3.627 3.627 0 0 1 5.038-.173c.623.524 1.248 1.047 1.853 1.591a.585.585 0 0 0 .743.107c.928-.421 1.875-.8 2.828-1.167a.541.541 0 0 0 .424-.557c.041-.849.133-1.7.2-2.546A3.639 3.639 0 0 1 23.437.014a39.913 39.913 0 0 1 2.047 0 1.813 1.813 0 1 1-.021 3.626c-.623.014-1.246 0-1.919 0-.109 1.353-.221 2.667-.317 3.982a1.858 1.858 0 0 1-1.575 1.934 17.018 17.018 0 0 0-4.7 1.954 1.836 1.836 0 0 1-2.4-.2c-1.026-.867-2.045-1.744-3.017-2.574l-2.777 2.77c.661.77 1.395 1.625 2.127 2.481.173.2.347.4.514.607a1.778 1.778 0 0 1 .2 2.208 17.743 17.743 0 0 0-2.056 4.954 1.8 1.8 0 0 1-1.768 1.417l-4.093.324v3.888l3.948.316a1.862 1.862 0 0 1 1.96 1.615 16.943 16.943 0 0 0 1.91 4.589 1.866 1.866 0 0 1-.223 2.535c-.857 1.008-1.719 2.01-2.561 2.991l2.776 2.758c.979-.837 1.985-1.7 3-2.556a1.878 1.878 0 0 1 2.539-.218 16.7 16.7 0 0 0 4.486 1.874 1.91 1.91 0 0 1 1.721 2.055c.094 1.282.2 2.562.311 3.871 1.277-.007 2.541-.007 3.828-.007Z" data-name="Path 7"/><path d="M25.259 38.176a12.734 12.734 0 0 1-2.344-25.208 3.016 3.016 0 0 1 1.439.044 1.725 1.725 0 0 1 1.12 1.848 1.816 1.816 0 0 1-1.483 1.59 9.106 9.106 0 0 0 .2 17.994 9.974 9.974 0 0 0 4.154-.349 2.812 2.812 0 0 1 1.378-.045 1.686 1.686 0 0 1 1.222 1.663 1.815 1.815 0 0 1-1.281 1.759 12.9 12.9 0 0 1-4.405.704Z" data-name="Path 8"/></g></svg>