<svg xmlns="http://www.w3.org/2000/svg" class="d-none d-xl-block" viewBox="0 0 58 53"><g fill="#FF640F" stroke="#F50"><path stroke-width=".8" d="M56.984 51.455a1.627 1.627 0 0 1-1.561.735c-4.961-.019-9.923-.01-14.883-.01-1.218 0-1.538-.323-1.537-1.55 0-1.467-.032-2.934.016-4.4a8.782 8.782 0 0 1 4.256-7.448c.09-.058.175-.125.3-.212a5.452 5.452 0 0 1-.8-4.6 5.259 5.259 0 0 1 2.032-2.932 5.428 5.428 0 0 1 7.673 7.45c.777.691 1.6 1.318 2.293 2.07a8.388 8.388 0 0 1 2.118 4.615c.023.103.055.203.094.3l-.001 5.982Zm-2.179-1.486c0-1.27.049-2.5-.01-3.728a6.629 6.629 0 0 0-3.786-5.9.98.98 0 0 0-.734 0 5.592 5.592 0 0 1-4.582 0 .98.98 0 0 0-.734.012 6.553 6.553 0 0 0-3.512 4.2c-.509 1.773-.183 3.594-.278 5.43l13.636-.014ZM47.98 38.642a3.231 3.231 0 1 0-3.233-3.253 3.223 3.223 0 0 0 3.233 3.252v.001ZM1.002 45.475c.197-.86.44-1.708.726-2.543a8.557 8.557 0 0 1 3.488-4.112c.12-.075.233-.162.349-.244a5.432 5.432 0 1 1 8.863-.013c.061.057.126.11.193.158a8.856 8.856 0 0 1 4.356 7.671c.033 1.5.014 3.005 0 4.508-.006.87-.4 1.273-1.263 1.274-5.142.007-10.284 0-15.425.01A1.464 1.464 0 0 1 1 51.455l.002-5.979Zm15.789 4.5c0-1.352.061-2.64-.013-3.918a6.632 6.632 0 0 0-3.724-5.723.8.8 0 0 0-.8-.015 5.4 5.4 0 0 1-4.572 0 .916.916 0 0 0-.687.01 6.122 6.122 0 0 0-3.554 4.4 43.93 43.93 0 0 0-.362 5.251l13.712-.005Zm-6.78-17.8a3.231 3.231 0 1 0 2.288.962 3.22 3.22 0 0 0-2.288-.956v-.006Zm2.592-14.639A16.391 16.391 0 1 1 28.94 33.782c-8.987.001-16.287-7.258-16.337-16.246Zm16.416-14.06c-7.751.055-13.997 6.37-13.966 14.122.031 7.752 6.327 14.017 14.078 14.011 7.752-.006 14.038-6.282 14.056-14.034-.027-7.802-6.365-14.11-14.168-14.1Z"/><path stroke-width=".2" d="M32.225 40.83c-.578-.68-1.063-1.24-1.537-1.81a1.088 1.088 0 1 1 1.622-1.435c1.022 1.174 2.024 2.367 3.037 3.55.33.332.41.838.2 1.256-.204.422-.65.67-1.116.62l-9.885-.024c-.344 0-.689.006-1.032-.007a1.09 1.09 0 0 1-1.195-1.119 1.064 1.064 0 0 1 1.2-1.048c2.534 0 5.069.01 7.6.016l1.106.001Zm-6.456 6.816c.554.652 1.025 1.2 1.486 1.75a1.121 1.121 0 0 1 0 1.682 1.106 1.106 0 0 1-1.657-.274c-.98-1.139-1.945-2.289-2.93-3.424a1.128 1.128 0 0 1-.246-1.3 1.1 1.1 0 0 1 1.112-.617c3.62.01 7.241.01 10.86.017.8 0 1.268.43 1.26 1.106-.008.677-.481 1.065-1.29 1.065l-7.874-.007-.721.002Zm1.066-27.06V16.6a.3.3 0 0 0-.146-.282 4 4 0 0 1 .426-6.807.617.617 0 0 1 .951.567v2.445c0 .131.032.207.161.235a.116.116 0 0 1 .037.013c.452.301 1.04.301 1.491 0 .113-.065.172-.11.171-.252-.008-.8 0-1.592 0-2.388a.627.627 0 0 1 1.007-.59 4 4 0 0 1 .367 6.781.3.3 0 0 0-.142.283v7.857a2.159 2.159 0 1 1-4.317.091c-.015-1.322 0-2.645 0-3.967h-.006Zm0-9.273c-.074.1-.115.144-.149.2a2.757 2.757 0 0 0 .946 3.946.78.78 0 0 1 .442.76c-.008 2.714 0 5.43 0 8.145v.212a.927.927 0 0 0 1.85-.113v-8.242a.779.779 0 0 1 .44-.76 2.754 2.754 0 0 0 .958-3.93c-.039-.06-.085-.114-.16-.213v1.713a.641.641 0 0 1-.467.692c-.458.185-.919.362-1.376.551a.783.783 0 0 1-.633 0c-.456-.19-.917-.368-1.376-.552a.639.639 0 0 1-.469-.69c-.006-.555-.006-1.107-.006-1.719Z"/></g></svg>