<svg xmlns="http://www.w3.org/2000/svg" width="62" height="62" role="img"><defs><linearGradient id="nobatIcon_svg__a" x1="0.5" x2="0.5" y2="1" gradientUnits="objectBoundingBox"><stop offset="0" stop-color="#ff7a10"></stop><stop offset="1" stop-color="#ff7529"></stop></linearGradient></defs><g data-name="Turn ratings-icon"><g data-name="Rectangle 35" fill="#fff" stroke="#cad1dc"><path stroke="none" d="M7 0h55v37H7z"></path><path fill="none" d="M7.5.5h54v36h-54z"></path></g><path data-name="Rectangle 36" transform="translate(7 36)" fill="url(#nobatIcon_svg__a)" d="M0 0h55v26H0z"></path><path data-name="Rectangle 37" fill="#21376c" d="M0 6h54v49H0z"></path><path data-name="Path 9" d="M12 39.731v-.48a2.6 2.6 0 0 1 .33-.449 11.429 11.429 0 0 0 2.3-2.9 21.224 21.224 0 0 0 2.756-10.332c.041-1.918.009-3.837.011-5.756a.916.916 0 0 1 1.021-1.016h4.436v-.791a.9.9 0 1 1 1.8-.01v.784h4.5v-.791a.9.9 0 1 1 1.8-.006v.791h4.557v-.832a.9.9 0 1 1 1.8 0v.857h.353c1.279 0 2.558.018 3.836-.009a1.14 1.14 0 0 1 1.207.668V43.33a1.155 1.155 0 0 1-1.207.668q-11.37-.018-22.738 0c-1.026 0-1.423-.327-1.368-1.377.039-.734.007-1.471.007-2.233h-.354c-1.288 0-2.577-.018-3.864.008A1.119 1.119 0 0 1 12 39.731Zm2.959-1.139h.269q10.3 0 20.6-.008a.586.586 0 0 0 .4-.181 24.965 24.965 0 0 0 1.622-2.073 18.745 18.745 0 0 0 2.745-7.413c.152-.952.224-1.918.335-2.9H19.187a21.9 21.9 0 0 1-4.228 12.575Zm25.93-17.971h-3.583v.768a.9.9 0 1 1-1.8.011v-.784h-4.557v.82a.9.9 0 1 1-1.8 0v-.819h-4.5v.832a.9.9 0 1 1-1.8 0v-.835H19.22v3.564h21.669Zm0 13.831c-.08.165-.126.259-.17.353a17.253 17.253 0 0 1-3.509 5.179 1.4 1.4 0 0 1-1.047.414q-8.3-.013-16.607-.006h-.348v1.783h21.68c.003-2.559.003-5.1.003-7.724Z" fill="#fff"></path></g></svg>