<svg xmlns="http://www.w3.org/2000/svg" width="62" height="62" role="img"><defs><linearGradient id="serviceIcon_svg__a" x1="0.5" x2="0.5" y2="1" gradientUnits="objectBoundingBox"><stop offset="0" stop-color="#ff7a10"></stop><stop offset="1" stop-color="#ff7529"></stop></linearGradient></defs><g data-name="Types of services-icon"><g data-name="Rectangle 33" fill="#fff" stroke="#cad1dc"><path stroke="none" d="M7 0h55v37H7z"></path><path fill="none" d="M7.5.5h54v36h-54z"></path></g><path data-name="Rectangle 34" transform="translate(7 36)" fill="url(#serviceIcon_svg__a)" d="M0 0h55v26H0z"></path><path data-name="Rectangle 32" fill="#21376c" d="M0 6h54v49H0z"></path><g data-name="Types of car services" fill="#fff"><path data-name="Path 33" d="M40.004 25.993a1.626 1.626 0 0 1-.762 1.016 4.628 4.628 0 0 1-1 .286.438.438 0 0 0-.325.25.811.811 0 0 0 .1 1.028 1.533 1.533 0 0 1-.185 2.212c-.216.217-.428.44-.658.642a1.509 1.509 0 0 1-1.76.178 1.627 1.627 0 0 1-.348-.233.646.646 0 0 0-.819-.095.619.619 0 0 0-.391.511 3.362 3.362 0 0 1-.319.957 1.326 1.326 0 0 1-1.157.662c-.376.014-.754.017-1.13 0a1.512 1.512 0 0 1-1.43-1.18 1.9 1.9 0 0 1-.065-.361.678.678 0 0 0-.473-.625c-.352-.173-.551-.005-.794.165a1.582 1.582 0 0 1-2.3-.2c-.211-.211-.427-.417-.619-.642a1.51 1.51 0 0 1-.16-1.74 1.3 1.3 0 0 1 .188-.284.7.7 0 0 0 .114-.936.5.5 0 0 0-.419-.317 1.893 1.893 0 0 1-1.276-.538 1.46 1.46 0 0 1-.409-.942 16.82 16.82 0 0 1-.005-1.1 1.527 1.527 0 0 1 1.242-1.49 1.687 1.687 0 0 1 .336-.057c.3-.006.431-.159.571-.422.191-.36.039-.577-.15-.841a1.574 1.574 0 0 1 .19-2.278c.192-.192.379-.39.58-.571a1.53 1.53 0 0 1 1.914-.167.92.92 0 0 1 .173.118.708.708 0 0 0 .974.117c.167-.1.278-.176.288-.382a2.687 2.687 0 0 1 .091-.49 1.535 1.535 0 0 1 1.5-1.234 17.5 17.5 0 0 1 .972 0 1.55 1.55 0 0 1 1.522 1.274 2.458 2.458 0 0 1 .059.362.557.557 0 0 0 .392.507.7.7 0 0 0 .82-.1 1.584 1.584 0 0 1 2.376.205c.155.155.313.307.463.465a1.554 1.554 0 0 1 .184 2.04.689.689 0 0 1-.092.128.7.7 0 0 0-.108.951c.095.17.178.276.377.293a3.384 3.384 0 0 1 .541.1 1.521 1.521 0 0 1 1.134 1.092c.015.049.038.1.057.143-.004.502-.004 1.015-.004 1.523Zm-3.826 4.456a1.5 1.5 0 0 0 .192-.136c.177-.17.344-.349.523-.517a.272.272 0 0 0 .032-.414c-.188-.253-.36-.517-.544-.773a.77.77 0 0 1-.068-.837c.176-.38.338-.767.481-1.161a.8.8 0 0 1 .686-.565c.3-.045.6-.109.905-.155a.261.261 0 0 0 .251-.3 9.86 9.86 0 0 1 0-.709.3.3 0 0 0-.294-.352c-.3-.045-.6-.11-.905-.156a.764.764 0 0 1-.641-.543c-.146-.392-.3-.781-.481-1.161a.785.785 0 0 1 .07-.862c.185-.255.359-.517.544-.773a.263.263 0 0 0-.034-.393 12.142 12.142 0 0 1-.519-.521.272.272 0 0 0-.413-.037c-.253.187-.516.361-.772.545a.771.771 0 0 1-.839.068 18 18 0 0 0-1.185-.49.757.757 0 0 1-.53-.623c-.05-.311-.111-.62-.159-.931a.286.286 0 0 0-.336-.281 8.823 8.823 0 0 1-.709 0 .271.271 0 0 0-.319.265c-.045.311-.107.621-.159.931a.769.769 0 0 1-.523.631c-.407.156-.813.318-1.209.5a.754.754 0 0 1-.814-.066c-.264-.188-.532-.369-.794-.56a.264.264 0 0 0-.394.036c-.17.176-.342.352-.521.519a.277.277 0 0 0-.039.415c.19.262.373.529.558.8a.744.744 0 0 1 .066.792c-.182.4-.349.8-.5 1.208a.766.766 0 0 1-.648.535c-.3.045-.6.107-.9.157-.181.03-.283.11-.275.311.01.245.007.49 0 .735a.269.269 0 0 0 .264.319c.3.043.6.108.905.155a.792.792 0 0 1 .668.551c.146.392.3.781.482 1.16a.785.785 0 0 1-.073.862c-.186.255-.361.516-.545.772a.265.265 0 0 0 .036.394c.178.168.352.342.519.521a.275.275 0 0 0 .415.036c.248-.18.5-.35.75-.531a.782.782 0 0 1 .861-.082c.379.177.768.337 1.16.481a.8.8 0 0 1 .564.687c.042.285.114.567.147.853.027.237.145.312.367.3a5.152 5.152 0 0 1 .63 0 .312.312 0 0 0 .382-.319c.037-.295.106-.585.151-.879a.753.753 0 0 1 .52-.63c.407-.157.812-.322 1.208-.5a.76.76 0 0 1 .816.07q.385.274.775.541a2.144 2.144 0 0 0 .214.107Z"></path><path data-name="Path 34" d="M22.311 44.001a5.123 5.123 0 0 1-.593-.259 1.713 1.713 0 0 1-.869-1.393 1.073 1.073 0 0 0-.839-1.126.8.8 0 0 0-.861.094 2.4 2.4 0 0 1-1.121.6 1.675 1.675 0 0 1-1.469-.386 13.017 13.017 0 0 1-1.044-1.035 1.717 1.717 0 0 1-.189-2.114c.167-.276.374-.529.544-.8a.372.372 0 0 0 .024-.278 5.469 5.469 0 0 1-.22-.531c-.079-.394-.323-.521-.693-.555a3.005 3.005 0 0 1-.841-.188 1.709 1.709 0 0 1-1.127-1.6c-.022-.4-.01-.806-.006-1.209a1.794 1.794 0 0 1 1.554-1.829 3.62 3.62 0 0 1 .569-.095.466.466 0 0 0 .5-.423.554.554 0 0 1 .082-.22c.307-.409.178-.739-.114-1.108a2.928 2.928 0 0 1-.492-.969 1.5 1.5 0 0 1 .341-1.448 12.326 12.326 0 0 1 1.132-1.132 1.7 1.7 0 0 1 1.986-.172c.286.169.556.365.825.56a.3.3 0 0 0 .354.04 6.649 6.649 0 0 1 .749-.314.331.331 0 0 0 .249-.319 7.034 7.034 0 0 1 .145-.8.693.693 0 0 1 .763-.535.684.684 0 0 1 .566.764c-.066.485-.157.967-.245 1.449a.729.729 0 0 1-.5.558c-.535.212-1.069.429-1.6.66a.753.753 0 0 1-.793-.056c-.344-.242-.687-.484-1.033-.723-.321-.223-.474-.207-.757.073-.23.228-.461.456-.687.688a.444.444 0 0 0-.055.675q.358.519.725 1.031a.791.791 0 0 1 .063.862c-.226.5-.44 1.008-.632 1.523a.774.774 0 0 1-.633.554c-.431.074-.862.149-1.292.232a.427.427 0 0 0-.408.486q-.008.538 0 1.078a.438.438 0 0 0 .411.488c.413.076.826.15 1.241.215a.816.816 0 0 1 .691.593c.18.5.387.992.611 1.474a.8.8 0 0 1-.056.885c-.246.34-.486.685-.724 1.031a.444.444 0 0 0 .057.675c.232.239.468.473.706.706a.458.458 0 0 0 .715.066c.339-.234.677-.468 1.01-.71a.8.8 0 0 1 .885-.061c.49.227.991.436 1.5.621a.8.8 0 0 1 .573.677c.065.406.138.81.211 1.215.058.322.192.44.513.443h1.051a.429.429 0 0 0 .492-.4c.076-.386.153-.773.207-1.163a.9.9 0 0 1 .7-.81 9.79 9.79 0 0 0 1.352-.564.837.837 0 0 1 .954.064c.323.24.656.468.987.7a.448.448 0 0 0 .694-.063c.25-.246.5-.5.743-.743a.437.437 0 0 0 .053-.615c-.244-.353-.487-.706-.739-1.053a.815.815 0 0 1-.06-.908 15.2 15.2 0 0 0 .6-1.449.823.823 0 0 1 .706-.609c.372-.057.74-.131 1.111-.195a1.912 1.912 0 0 1 .287-.032.674.674 0 0 1 .192 1.328c-.288.07-.588.1-.875.171a.466.466 0 0 0-.253.207c-.087.149-.107.342-.2.48a.673.673 0 0 0 .1.924 2.17 2.17 0 0 1 .6 1.34 1.712 1.712 0 0 1-.446 1.253c-.323.345-.651.688-1 1a1.722 1.722 0 0 1-2.158.167c-.252-.157-.484-.347-.74-.5a.465.465 0 0 0-.323-.034c-.159.042-.3.163-.458.191-.436.079-.564.351-.623.759a3.726 3.726 0 0 1-.345 1.113 1.782 1.782 0 0 1-1.17.814Z"></path><path data-name="Path 35" d="M23.249 38.324a4.574 4.574 0 0 1-.037-9.148.7.7 0 0 1 .734.64.672.672 0 0 1-.65.714 3.376 3.376 0 0 0-2.12.793 3.2 3.2 0 1 0 5.277 2.653 1.021 1.021 0 0 1 .218-.709.676.676 0 0 1 .728-.155.7.7 0 0 1 .436.66 4.582 4.582 0 0 1-2.871 4.208 5.309 5.309 0 0 1-.828.245c-.292.056-.592.067-.887.099Z"></path><path data-name="Path 37" d="M31.77 28.491a3.261 3.261 0 1 1 3.27-3.246 3.252 3.252 0 0 1-3.27 3.246Zm.006-1.367a1.895 1.895 0 1 0-1.891-1.885 1.9 1.9 0 0 0 1.89 1.885Z"></path></g></g></svg>