<svg xmlns="http://www.w3.org/2000/svg" xmlns:xlink="http://www.w3.org/1999/xlink" width="91" viewBox="0 0 91 90"><defs><path id="a" d="M0 0h90v90H0z"/></defs><g fill="none" fill-rule="evenodd"><g transform="translate(.5)"><mask id="b" fill="#fff"><use xlink:href="#a"/></mask><path fill="#21366B" d="M56 26.248c-.63-5.203-5.836-9.483-11.196-9.295-5.471.192-10.511 4.504-10.769 9.299 4.107-.176 8.165-.135 10.964 3.791 2.819-3.935 6.91-3.9 11.001-3.795Zm26.483 11.26v42.203c0 .38.01.763-.03 1.14-.095.877-.72 1.504-1.595 1.603-.348.04-.702.03-1.053.03-8.963 0-17.925.005-26.888-.002-2.284-.002-4.094.848-5.29 2.846-.153.257-.247.55-.415.93h36.353c2.123 0 2.691-.576 2.692-2.725V40.218c0-.293.012-.588-.017-.878-.107-1.066-.74-1.73-1.796-1.822-.605-.052-1.217-.01-1.96-.01Zm-74.97-.016c-.576 0-.984-.002-1.392.001-1.706.013-2.38.688-2.38 2.418-.002 14.643-.002 29.287 0 43.93 0 1.727.676 2.414 2.383 2.415 11.92.004 23.841.002 35.762 0 .27 0 .54-.024.847-.039-.84-2.347-2.854-3.715-5.436-3.727-4.071-.019-8.142-.005-12.214-.005-5.096 0-10.192.003-15.289-.002-1.655-.002-2.266-.627-2.28-2.291-.003-.293 0-.586 0-.879l-.001-40.591v-1.23ZM69.318 26.24c.11-1.549-.317-2.14-1.717-2.529-3.802-1.054-5.432-5.017-3.464-8.425.657-1.137.655-1.7-.237-2.695-1.036-1.153-2.144-2.243-3.242-3.34-.823-.82-1.588-.893-2.618-.317-3.653 2.044-7.401.502-8.57-3.526-.344-1.183-.916-1.64-2.151-1.654a219.92 219.92 0 0 0-4.57 0c-1.22.011-1.65.328-2.096 1.483-.106.273-.19.553-.294.827-1.313 3.464-4.97 4.774-8.192 2.936-1.155-.659-1.7-.652-2.686.25-1.21 1.106-2.37 2.267-3.515 3.44-.654.67-.757 1.517-.226 2.339 2.29 3.542.175 7.957-3.65 8.721-1.176.235-1.621 1.177-1.339 2.487 2.965 0 5.947.013 8.929-.03.19-.003.493-.415.543-.675 1.34-6.977 7.186-12.018 14.292-12.298 6.881-.271 13.12 4.36 14.96 11.106.168.613.148 1.493.546 1.768.464.32 1.293.127 1.964.129 2.426.007 4.852.003 7.333.003Zm-26.212 54.4v-1.1c0-14.471.002-28.941-.002-43.411 0-3.852-2.26-6.102-6.121-6.104-8.232-.004-16.463 0-24.695 0h-.989v48.722h1.066c8.026 0 16.052-.023 24.078.013 2.287.01 4.588.135 6.663 1.88Zm35.586-1.912V30.065c-.247-.016-.446-.04-.645-.04-8.462-.002-16.924-.004-25.385.004-.465 0-.943.025-1.394.128-2.74.63-4.374 2.823-4.375 5.878a86825.79 86825.79 0 0 0 0 43.563c0 .275.03.55.055.967 2.051-1.677 4.403-1.784 6.745-1.807 4.655-.047 9.31-.027 13.965-.03 3.656-.003 7.312-.001 11.034-.001ZM73.136 26.24c2.37 0 4.622-.003 6.875 0 1.864.003 2.466.61 2.472 2.48.005 1.582.01 3.163.017 4.744 0 .054.033.108.092.29.557 0 1.16-.007 1.762.002 3.176.047 5.63 2.46 5.634 5.643.016 14.966.015 29.933.002 44.899-.004 3.274-2.459 5.69-5.758 5.696-8.406.013-16.813.004-25.22.004H6.29C2.238 89.997 0 87.75 0 83.68V40.099c0-4.127 2.218-6.344 6.346-6.346h1.167v-3.892c0-.498-.008-.996.003-1.494.03-1.4.71-2.106 2.118-2.121 2.05-.023 4.1-.007 6.151-.007H16.8c.047-.566.031-1.094.141-1.595.534-2.431 2.03-3.944 4.434-4.59 1.456-.39 1.951-1.623 1.217-2.93-.043-.077-.093-.15-.137-.225-1.297-2.26-1.036-4.83.744-6.737A105.486 105.486 0 0 1 26.892 6.4c1.888-1.83 4.55-2.195 6.78-.773 1.427.91 3.022.255 3.386-1.43.547-2.53 2.787-4.157 5.394-4.184 1.7-.017 3.398-.018 5.097 0 2.606.029 4.71 1.657 5.433 4.178.55 1.914 1.58 2.328 3.34 1.34 2.172-1.217 4.752-.952 6.597.755a90.958 90.958 0 0 1 3.883 3.82c1.747 1.822 2.02 4.438.766 6.66-1 1.773-.563 2.84 1.39 3.396 2.462.7 4.1 2.798 4.177 5.355.006.2.001.4.001.722Z" mask="url(#b)"/></g><path fill="#0236D7" d="M55.063 62.119h3.542v-7.465h-3.542v7.465Zm7.266-3.748c0 1.798.007 3.596-.003 5.394-.008 1.478-.666 2.17-2.099 2.178a526.51 526.51 0 0 1-6.768 0c-1.438-.008-2.11-.697-2.113-2.162-.008-3.596-.009-7.192 0-10.788.004-1.405.706-2.137 2.055-2.144 2.284-.013 4.569-.012 6.854 0 1.357.006 2.06.731 2.07 2.128.013 1.798.004 3.596.004 5.394Zm.978 14.449c-3.321 0-6.642.014-9.963-.006-1.561-.01-2.479-1.373-1.75-2.55.42-.683 1.098-.878 1.909-.875 3.292.014 6.584.006 9.876.006s6.584.007 9.876-.005c.851-.003 1.541.23 1.932.97.627 1.187-.298 2.447-1.83 2.455-3.35.017-6.7.005-10.05.005m3.446-25.42c-2.115 0-4.23.012-6.346-.004-1.175-.01-1.96-.615-2.15-1.595-.262-1.36.592-2.454 2.009-2.498 1.25-.04 2.502-.01 3.753-.01 3.069 0 6.137-.018 9.206.008 1.553.014 2.483 1.261 2.057 2.671-.275.91-.981 1.415-2.094 1.424-2.145.016-4.29.004-6.435.004m.087-11.67c2.143 0 4.287-.012 6.43.004 1.274.01 2.135.733 2.115 1.727-.02.976-.86 1.688-2.076 1.691-4.346.012-8.692.01-13.038.001-1.002-.002-1.749-.484-1.983-1.22-.24-.751.081-1.604.842-1.942.406-.18.91-.245 1.37-.25 2.113-.026 4.226-.012 6.34-.011m3.713 28.159c-.84 0-1.68.011-2.52-.003-1.371-.024-2.25-.82-2.266-2.03-.015-1.212.866-2.054 2.222-2.07 1.71-.021 3.42-.018 5.13-.002 1.373.013 2.251.816 2.266 2.026.015 1.24-.887 2.057-2.312 2.076-.84.012-1.68.003-2.52.003m.024-10.979c.96 0 1.92-.024 2.88.005 1.112.035 1.901.734 1.928 1.654.027.947-.79 1.726-1.93 1.744-1.918.03-3.84.03-5.759 0-1.14-.018-1.955-.797-1.928-1.744.026-.917.819-1.62 1.93-1.654.958-.028 1.919-.005 2.879-.005M54.775 37.421a1.716 1.716 0 0 1-1.737 1.739c-.917-.016-1.69-.797-1.698-1.714a1.71 1.71 0 0 1 1.754-1.72c.955.01 1.676.74 1.68 1.695m.001 7.598a1.718 1.718 0 0 1-1.733 1.699c-.931.003-1.721-.802-1.702-1.732.02-.922.823-1.704 1.753-1.704.94 0 1.696.78 1.682 1.737m-35.259 1.969h16.992v-7.439H19.516v7.439Zm8.44 3.85c-3.325 0-6.65.004-9.976 0-1.63-.002-2.353-.696-2.358-2.3-.01-3.514-.01-7.028 0-10.542.006-1.584.694-2.264 2.29-2.266 6.71-.007 13.42-.006 20.13 0 1.657.001 2.3.662 2.302 2.33.004 3.485.004 6.97 0 10.454-.002 1.635-.687 2.321-2.322 2.323-3.355.005-6.71.002-10.066.002ZM23.13 65.263c-1.797 0-3.596.011-5.394-.004-1.274-.01-2.12-.707-2.121-1.702-.001-1.005.85-1.715 2.115-1.718 3.625-.01 7.25-.01 10.876 0 1.268.003 2.12.707 2.123 1.711.004.998-.841 1.699-2.116 1.71-1.827.014-3.655.003-5.482.003m10.003-10.984c1.428 0 2.856-.01 4.284.003 1.402.012 2.255.811 2.242 2.072-.012 1.226-.848 2.025-2.192 2.032-2.885.015-5.77.014-8.655 0-1.335-.006-2.188-.813-2.206-2.025-.018-1.245.857-2.067 2.244-2.08 1.427-.013 2.855-.002 4.283-.002M21.176 69.395c1.144 0 2.288-.014 3.431.003 1.262.019 2.016.686 2 1.731-.016.995-.792 1.677-1.978 1.684-2.344.015-4.69.016-7.035 0-1.162-.008-1.969-.726-1.98-1.702-.01-.964.8-1.69 1.958-1.71 1.201-.022 2.403-.005 3.604-.006M34.79 72.82c-.903 0-1.806.013-2.708-.004-1.229-.024-2.043-.723-2.04-1.72.003-1.016.779-1.678 2.055-1.692 1.835-.02 3.67-.02 5.505.001 1.233.014 2.064.726 2.058 1.705-.006.973-.856 1.684-2.073 1.706-.932.016-1.865.003-2.798.003M19.464 54.291c.62 0 1.243-.042 1.859.01 1.106.092 1.85.936 1.849 2.026 0 1.092-.74 1.968-1.85 2.022a37.19 37.19 0 0 1-3.894-.006c-1.082-.06-1.84-.998-1.813-2.063.027-1.045.758-1.879 1.813-1.972.674-.06 1.357-.011 2.036-.011v-.006Zm17.423 10.965c-.343 0-.687.023-1.027-.004-.985-.077-1.698-.8-1.696-1.692.003-.883.726-1.632 1.704-1.695a16.927 16.927 0 0 1 2.053-.003c1.02.058 1.764.832 1.739 1.746-.026.89-.748 1.581-1.747 1.648-.34.023-.684.004-1.026.004v-.004Z"/></g></svg>