<svg xmlns="http://www.w3.org/2000/svg" class="d-none d-xl-block" viewBox="0 0 48.664 52.057"><defs><clipPath id="a"><path fill="#ff640f" d="M0 0h28.543v52.057H0z" data-name="Rectangle 57"/></clipPath></defs><g clip-path="url(#a)" data-name="Mask Group 12"><path fill="#ff640f" d="M6.014 19.277H3.267a1.971 1.971 0 0 1-1.806-3.1q3.822-6.77 7.667-13.526a2.077 2.077 0 0 1 1.959-1.121q17.439.01 34.88 0a2.124 2.124 0 0 1 2 1.163q3.812 6.738 7.634 13.475a1.972 1.972 0 0 1-1.791 3.114c-.894.007-1.788 0-2.755 0v25.473a5.866 5.866 0 0 1-4.392 5.876 6.482 6.482 0 0 1-1.631.2q-16.492.017-32.983 0a5.876 5.876 0 0 1-6.031-6.069q-.012-12.325 0-24.649c-.004-.249-.004-.497-.004-.836Zm3.917.013v25.293a2.02 2.02 0 0 0 2.29 2.3h32.613c1.574 0 2.3-.746 2.3-2.35V19.292l-37.203-.001Zm40.622-3.968a1.741 1.741 0 0 0-.086-.238c-1.755-3.1-3.5-6.2-5.284-9.29a.907.907 0 0 0-.688-.307q-15.964-.022-31.929-.025a.8.8 0 0 0-.8.485c-1.654 2.946-3.326 5.881-4.992 8.82-.095.166-.18.337-.294.555Z" data-name="Path 79"/></g><path fill="#ff640f" d="M30.393 33.712c0-3.974-.006-7.949.009-11.923a.9.9 0 0 0-.433-.843A12.014 12.014 0 0 1 31.23.583a1.827 1.827 0 0 1 2.816 1.7q.016 3.657-.008 7.315c0 .392.094.621.477.7a.341.341 0 0 1 .108.038 3.948 3.948 0 0 0 4.416 0c.333-.2.51-.332.506-.753-.023-2.381-.012-4.762-.011-7.143 0-1.839 1.382-2.656 2.981-1.767a12.018 12.018 0 0 1 1.087 20.286.9.9 0 0 0-.42.848q.014 11.751 0 23.5a6.393 6.393 0 1 1-12.782.272c-.046-3.954-.009-7.911-.009-11.865Zm0-27.739c-.218.287-.339.43-.442.584a8.292 8.292 0 0 0 2.8 11.8 2.332 2.332 0 0 1 1.31 2.27c-.023 8.121-.012 16.243-.012 24.366 0 .21-.006.422.006.633a2.744 2.744 0 1 0 5.477-.338q0-12.327-.011-24.653a2.334 2.334 0 0 1 1.3-2.273 8.284 8.284 0 0 0 2.838-11.754c-.116-.178-.253-.341-.474-.638v5.123a1.918 1.918 0 0 1-1.383 2.071c-1.357.553-2.722 1.083-4.075 1.648a2.3 2.3 0 0 1-1.875 0c-1.35-.568-2.714-1.1-4.073-1.65a1.91 1.91 0 0 1-1.389-2.065c.001-1.643.003-3.293.003-5.124Z" data-name="Path 105"/><path fill="none" stroke="#ff640f" stroke-width="4.2" d="M28.182 48.903h5.055" data-name="Line 3"/></svg>